<?xml version="1.0" standalone="yes"?>
<svg xmlns="http://www.w3.org/2000/svg" width="301" height="200">
<path style="fill:#010101; stroke:none;" d="M0 0L0 51C6.23724 51 15.8807 49.1216 21 53L0 52C0 61.9881 -4.0645 83.9951 2 92C-2.84425 98.9162 0 113.72 0 122L0 200L227 200L227 196L228 196L228 200L237 198L238 198C241.514 202.022 251.909 200 257 200L257 197L251 197L251 196L263 196L263 197L258 197L258 200C263.406 200 275.29 202.245 279 198L280 198C283.618 202.122 295.742 200 301 200L301 78L291 75L301 77L301 53L297 53L297 52L301 52C301 46.5746 303.769 26.2362 298 25L298 24L301 24L301 0L171 0L171 4L170 4L170 0L135 0L122 2L121 2C113.126 -3.37946 95.391 0 86 0L86 7L85 7L85 0L30 0L34 3L0 0z"/>
<path style="fill:#23b14d; stroke:none;" d="M26 0L26 1L34 4L26 0M85 0L85 7L86 7L85 0M119 0L119 1L122 2L119 0M170 0L170 4L171 4L170 0M258.667 0.333328L259.333 0.666672L258.667 0.333328M215 16L180.09 19.9853L162 18C162.308 12.002 164.02 7.09503 170 5L170 4C160.436 5.48923 164.402 14.962 157.852 18.5664C148.793 23.5508 136.56 21.8867 127 26C122.134 17.1757 95.1925 25 86 25C85.9767 18.4306 84.5014 15.8839 78 14L78 13L85 7L84 7C75.2177 17.7602 54.3429 10.3517 42 14L42 15C50.5948 12.9538 66.4781 11.2152 75 13.6373C80.2411 15.127 87.3091 19.1889 83 25C82.8677 29.9937 79.9193 36.8618 86 39L86 40C71.7539 38.8757 66.4681 40.5678 54 47C50.4511 38.1943 41.7275 29.2734 32 28C37.5335 20.7634 47.964 9.74629 34 4L34 5C43.1433 12.2001 39.4569 23.2101 28.8302 27.4005C24.6109 29.0643 19.4375 27.6183 15 28.7608C10.7961 29.8431 6.06355 33.9668 2 32L1 32C4.54814 37.2899 14.5036 29.5372 20 29.0934C32.655 28.0713 44.6706 32.2085 51.169 43.9753C54.8047 50.5586 46.164 53.2307 43.4491 58.1042C41.6277 61.3737 43.1255 64.685 44 68L41 66L40 66C40.6544 69.0539 42.0066 68.9358 45 69L45 70L22 75L22 53L21 53C20.7782 63.7477 18.3075 83.019 27.419 91.3472C34.0107 97.3723 42.2342 92.2161 48 101C35.6338 101 20.214 104.973 17.3935 119C15.3441 129.193 29.984 150.754 11 149.961C7.98167 149.835 5.00931 149.237 2 149L2 150L21 150.876L44 143.289L67 152L67 153L5 167L5 168C36.8212 163.715 68.6488 153.539 100 146.576C113.341 143.613 128.276 137.549 142 139C147.61 133.206 160.298 132.71 168 130.884C185.291 126.786 202.709 123.214 220 119.116C228.943 116.996 239.814 112.544 249 114L266 108.576L299 101L299 100L249 111C248.88 106.025 248.12 102.52 243 101C248.02 94.6984 254.962 93.1196 260.682 88.0448C263.79 85.2876 263.134 80.3729 265.724 77.0586C270.843 70.5059 284.171 72.1065 291 75C283.941 67.7919 272.19 74.1391 263.91 73.7562C255.682 73.3756 249.85 63.6134 241.961 62.2245C231.557 60.3931 219.786 66 209 66L209 65C221.447 59.3932 211.267 49.8753 218.279 42.3009C229.609 30.063 255.011 34 270 34L270 45L272 45L274 24L298 24L298 23C287.864 23 284.291 22.093 281 12L300 8L300 7L280 11L269.039 9.66743L261 1L260 1L265 11C248.134 11.7354 214.978 32.0769 212 3L227 2C214.099 -1.96803 209.387 4.97615 215 16M122 2C124.29 9.87819 120.746 14.2454 117 21C122.459 16.4762 127.346 8.22551 122 2M190 3L190 4L200 3L190 3M300 6L301 7L300 6z"/>
<path style="fill:#010101; stroke:none;" d="M177 23C170.806 12.3902 153.304 21.4796 144 22.9853C140.099 23.6167 133.744 23.4465 130.603 26.1397C128.675 27.7929 129.027 30.7253 129 33L128 33C127.811 29.5137 127.315 25.2431 123.671 23.6034C117.442 20.8007 109.138 24.4706 103 25.625C97.6916 26.6234 75.0671 24.5512 84.5093 37.2855C85.7608 38.9734 87.58 40.4462 89 42C75.1452 38.2744 64.648 39.6241 53.6389 49.0278C49.6612 52.4254 36.1003 66.463 48 69L48 70L23 76C24.4774 81.2552 24.6958 88.9234 30.0548 91.821C34.2507 94.0898 39.5424 92.4893 43.8951 94.6528C48.1645 96.7749 48.7889 100.586 54 101L54 102C40.4226 102 19.6511 103.252 18.2245 121C17.4046 131.201 23.5293 139.376 21 150L45 142.365L70.0147 152.057L94 146.881L137 137L139 134L141 138L141 137L139 135L148 135L156 132.667L179 127.333L187 124L206 121.21L248 112C247.908 103.774 243.568 102.808 239 97L243 100L260.4 87.0093L264 76L240 63.0617L215 70L215 69L220 68L220 67L180 66L180 65C188.846 65 207.88 68.12 214 62C219.11 56.8904 212.776 51.8942 214 47C215.17 42.3197 220.76 37.7669 225 36C234.136 32.1932 246.398 33 257 33C259.504 33 268.105 34.4214 270 33C273.186 30.6107 268.587 25.8968 273 27L274 22L283 23C282.443 19.2308 281.492 11.3141 276.867 10.4877C261.094 7.66954 244.344 18.7669 229.17 20.6227C224.574 21.1848 219.558 18.0643 215 17.3248C205.056 15.7117 185.334 17.1324 177 23z"/>
<path style="fill:#23b14d; stroke:none;" d="M275 19L275 22L276 22L277 19L275 19M228 22C231.346 26.7465 235.158 30.8213 241 32L241 31L228 22M178 23L188 38C181.334 38 172.487 36.2894 167.879 42.3048C164.945 46.1353 166.081 52.0341 161.852 54.875C154.289 59.9548 144.983 55.9522 137.174 59.7029C130.412 62.9511 129.284 74.4026 129 81C126.53 78.1608 124.763 73.8571 121.776 71.6034C116.1 67.3199 106.228 71.1613 100 72C101.682 63.3603 109.209 45.2101 118.043 41.7461C123.533 39.5936 131.509 42.6012 137 43.625C145.313 45.1751 155.516 45.8249 164 46L164 45C151.046 44.4438 136.781 45.164 130 33L129 33L133 41C121.15 40.9019 114.819 38.5554 109 51L89 42L89 43L108 52L98 74L93 72L93 73L97 74L97 75L71 82C68.0149 73.2442 56.777 68.4553 48 68L48 69C67.6967 71.0153 83.7195 90.3314 77 109L54 102L54 103C61.8158 104.925 71.2934 105.757 77 112L80 111L83.0478 130.671L60 147L86 134C93.6437 120.44 106.793 130.876 117 131.895C122.773 132.471 130.605 129.78 135 134L136 134C133.488 127.755 124.597 131.279 119 130.957C113.921 130.664 110.72 127.064 105.961 126.225C98.0999 124.838 92.1948 127.768 85 130C84.3915 124.392 80.39 119.822 81.2176 114C84.5917 90.2667 109.295 102.403 123 104.715C130.356 105.955 137.565 106 145 106L133 128L149 106C150.68 100.093 156.923 99.7226 162 98L159 100L159 101L163 101C167.939 91.955 191.838 90.3799 195.223 102.105C197.011 108.299 189.428 117.773 188 124L189 124C193.317 112.269 199.316 105.567 207.925 96.9074C212.508 92.2973 217.543 87.1083 224 92L225 92C229.49 88.7877 235.493 92.7724 238 97L239 97C237.456 92.052 232.871 89.9392 228 89L230 83C226.563 81.5618 209.6 75.4293 215 71L215 70L211 70C211.598 78.5007 222.101 81.1133 229 84L213.129 89.858L197 104C194.385 87.4531 172.017 93.7971 162 97C162.03 88.4007 166.076 89.6626 169.972 83.6065C174.346 76.8074 171.995 72.4829 180 67L180 66C171.841 67.8055 166.998 61.2039 160 58L160 57C168.518 55.2237 165.405 44.4448 173.04 40.3179C184.337 34.2121 201.526 42.3118 213 44L213 43L188.34 35.7508L178 23M298 24L298 25L301 25L298 24M0 25L0 32L1 32L0 25M251 65L252 65C252.298 50.6552 263.603 41.9186 277.946 47.6034C287.672 51.4581 284.58 60.0306 297 54C293.939 53.5496 291.145 56.1699 288.094 55.2639C283.877 54.0116 283.583 48.4836 279.776 46.7423C264.211 39.6222 251.129 49.3726 251 65M0 51L0 52L21 53C17.2904 48.7548 5.40609 51 0 51M297 52L297 53L301 53L297 52z"/>
<path style="fill:#010101; stroke:none;" d="M130 84L129 84C127.143 80.3409 124.237 73.8556 120.468 71.858C107.782 65.1345 85.9619 80.2546 73 82C79.2194 93.8646 81.8964 96.3384 78 110C85.7032 107.601 87.2711 98.6006 97 98.0432C114.391 97.0468 129.99 109.324 148 104L148 98L149 98L149 102L161 98C161.007 88.9065 164.863 89.3814 168.972 82.7261C171.295 78.9633 172.215 72.3364 174 68C164.648 62.5669 144.384 50.8797 134.563 63.1474C130.351 68.409 130.018 77.5809 130 84z"/>
<path style="fill:#23b14d; stroke:none;" d="M291 75C293.332 78.5976 297.013 77.9969 301 78L301 77L291 75M130 84L130 85C138.445 88.4402 143.639 88.6268 147 98L148 98C146.66 87.7643 138.627 86.4604 130 84M0 91L0 93L2 93L0 91M2 93L2 94L19 108L19 107L2 93M50 120L50 121L58 120L50 120M131 126L131 129L132 129L131 126M226 196L227 196L226 189L251 196L251 195C232.977 193.528 224.413 186.874 223 169C247.391 175.87 268.47 175.347 293 169C289.301 186.92 282.192 194.163 263 195L263 196L288 190L286 199L287 199L300 145L299 145C297.353 157.231 296.093 167.459 283 170L286 147L285 147C284.252 152.919 284.887 163.897 281.142 168.686C277.122 173.827 263.036 173.875 257 174L257 152L256 152L256 174L237.603 170.411L235 149L234 149L235 171L222 169L218 142C236.841 149.256 257.254 148.331 277 146.975C284.115 146.487 295.791 145.421 300 139C290.098 142.99 276.388 136.175 266 135.17C252.615 133.874 239.911 138.335 227 141L227 142C237.099 140.64 246.758 136.794 257 136.09C269.089 135.258 282.427 138.746 294 142C276.97 149.233 253.924 148.21 236 145.41C232.034 144.79 218.056 143.802 218.056 137.95C218.056 132.015 233.841 130.606 238 130.17C257.983 128.075 281.98 126.703 300 137C296.618 131.58 288.892 130.717 283 129.754C267.402 127.204 250.631 126.997 235 129.439C229.79 130.253 219.035 131.026 216.272 136.34C214.229 140.272 217.564 148.814 218.4 153C221.18 166.924 225.39 181.819 226 196M300.333 137.667L300.667 138.333L300.333 137.667z"/>
<path style="fill:#010101; stroke:none;" d="M217 141L218 142L217 141z"/>
<path style="fill:#23b14d; stroke:none;" d="M177 142C186.057 155.706 187.878 159.601 179 174C191.129 164.633 188.609 150.55 177 142M95 174C102.11 168.563 107.162 161.238 115 156.464C132.988 145.507 155.472 144 176 144C169.744 141.375 161.563 143.387 155 143.914C131.9 145.771 107.956 153.287 95 174M300.333 143.667L300.667 144.333L300.333 143.667M98 174L98 175C115.546 171.379 131.831 166.244 150 167.039C159.26 167.445 167.904 170.775 177 172C154.901 158.502 120.798 167.578 98 174M280 194L280 198L281 198L280 194M236 195L236 198L237 198L236 195M227 196L227 200L228 200L227 196M251 196L251 197L257 200L258 200L258 197L263 197L251 196M237.333 198.667L237.667 199.333L237.333 198.667M279.333 198.667L279.667 199.333L279.333 198.667M285 199L286 200L285 199z"/>
</svg>
